<svg width="36" height="35" viewBox="0 0 36 35" fill="none" xmlns="http://www.w3.org/2000/svg">
<g id="croissant-svgrepo-com 1" clip-path="url(#clip0_669_3258)">
<path id="Vector" d="M11.5424 23.1431L10.0878 23.6227C9.82156 23.7363 8.98129 24.4629 8.36694 24.9936C7.93908 25.3633 7.49919 25.7432 7.0554 26.1086C5.60529 27.3008 4.10855 28.3333 2.82251 28.3333C2.56705 28.3333 2.32 28.2924 2.08375 28.2043C1.27341 27.9035 0.77596 27.1577 0.603625 25.9885C0.295871 23.8941 0.716008 21.8909 1.31627 20.2613V20.2607C2.13809 18.0283 3.29644 16.4958 3.37943 16.3879L4.05052 15.5138L11.5424 23.1431Z" fill="#BDA284"/>
<path id="Vector_2" d="M11.5425 23.1431L10.0879 23.6226C9.82159 23.7362 8.98131 24.4629 8.36697 24.9935C7.93911 25.3632 7.49921 25.7432 7.05542 26.1085L1.31616 20.2613V20.2607C2.13798 18.0283 3.29633 16.4958 3.37932 16.3879L4.05041 15.5138L11.5425 23.1431Z" fill="#664631" fill-opacity="0.6"/>
<path id="Vector_3" d="M15.1457 21.9414L12.8846 23.3142L12.4274 23.5921L10.4684 24.781L2.00574 16.1632L2.35567 15.5367C2.4336 15.3968 3.69914 13.1767 6.16781 11.4009C7.44292 10.4833 9.04 9.68445 10.9601 9.35304L11.4256 9.27258L12.1306 9.92323L15.1457 21.9414Z" fill="#BDA284"/>
<path id="Vector_4" d="M15.1457 21.9414L12.8847 23.3142L12.4275 23.5921L6.16772 11.4009C7.44283 10.4833 9.03992 9.68445 10.96 9.35304L11.4255 9.27258L12.1305 9.92323L15.1457 21.9414Z" fill="#664631" fill-opacity="0.6"/>
<g id="Group">
<path id="Vector_5" d="M35.3965 25.9495C35.2241 27.1193 34.7267 27.8651 33.9164 28.1659C33.6801 28.254 33.433 28.2949 33.1776 28.2949C31.8418 28.2949 30.2793 27.1813 28.7768 25.9304C28.3899 25.6091 28.0067 25.2784 27.6331 24.9553C27.0189 24.424 26.1785 23.698 25.9123 23.5843L24.4576 23.1048L31.9497 15.4755L32.6208 16.3496C32.7077 16.4626 33.9656 18.1267 34.7893 20.5194C35.3314 22.0927 35.6858 23.9809 35.3965 25.9495Z" fill="#BDA284"/>
<path id="Vector_6" d="M33.9593 16.1632L25.496 24.7811L23.4623 23.5462L20.8193 21.9415L23.8345 9.92335L24.5395 9.27271L25.0043 9.35316C26.9245 9.68457 28.5215 10.4834 29.7972 11.401C32.2652 13.1768 33.5308 15.397 33.6093 15.5368L33.9593 16.1632Z" fill="#BDA284"/>
<path id="Vector_7" d="M25.8957 9.57722L22.4181 23.4394H13.5455L10.0674 9.57722L10.4154 9.19728C11.3642 8.16027 12.9396 7.41959 15.0979 6.99624C16.6343 6.69491 17.9107 6.66805 17.9643 6.66675H18C18.0626 6.66805 19.3352 6.69607 20.8658 6.99624C23.0241 7.41959 24.5994 8.16033 25.5483 9.19728L25.8957 9.57722Z" fill="#BDA284"/>
</g>
<g id="Group_2">
<path id="Vector_8" d="M25.8957 9.57722L22.4181 23.4394H18V6.66675C18.0625 6.66805 19.3352 6.69607 20.8658 6.99624C23.0241 7.41959 24.5994 8.16033 25.5483 9.19728L25.8957 9.57722Z" fill="#664631" fill-opacity="0.6"/>
<path id="Vector_9" d="M33.9593 16.1631L25.496 24.781L23.4623 23.5461L29.7974 11.401C32.2653 13.1768 33.531 15.397 33.6095 15.5368L33.9593 16.1631Z" fill="#664631" fill-opacity="0.6"/>
<path id="Vector_10" d="M35.3966 25.9495C35.2242 27.1193 34.7267 27.8651 33.9165 28.1659C33.6801 28.254 33.4331 28.2949 33.1777 28.2949C31.8418 28.2949 30.2793 27.1813 28.7769 25.9304L34.7894 20.5193C35.3314 22.0927 35.6859 23.9809 35.3966 25.9495Z" fill="#664631" fill-opacity="0.6"/>
</g>
</g>
<defs>
<clipPath id="clip0_669_3258">
<rect width="35" height="35" fill="white" transform="translate(0.5)"/>
</clipPath>
</defs>
</svg>
