<svg width="35" height="36" viewBox="0 0 35 36" fill="none" xmlns="http://www.w3.org/2000/svg">
<g id="hot tea" clip-path="url(#clip0_669_2023)">
<path id="Vector" d="M6.08374 10.5095H25.6603V22.5408C25.6603 23.3547 25.5146 24.1606 25.2316 24.9126C24.9485 25.6646 24.5337 26.3478 24.0107 26.9234C23.4877 27.4989 22.8669 27.9554 22.1835 28.2669C21.5002 28.5784 20.7679 28.7387 20.0283 28.7387H11.7459C11.0037 28.7431 10.2681 28.586 9.58135 28.2764C8.89456 27.9669 8.27013 27.5111 7.74396 26.9351C7.21778 26.3592 6.80023 25.6744 6.51531 24.9203C6.2304 24.1662 6.08373 23.3575 6.08374 22.5408V10.5095Z" fill="#BDA284" stroke="#664631" stroke-width="2" stroke-linecap="round" stroke-linejoin="round"/>
<g id="Vector_2">
<path d="M1.56616 28.7386H30.178C30.178 29.6176 29.8607 30.4607 29.2959 31.0822C28.7311 31.7038 27.5434 33.1136 26.7446 33.1136H15.9022C15.9022 33.1136 5.13577 33.1136 4.337 33.1136C3.53822 33.1136 3.01311 31.7038 2.44829 31.0822C1.88347 30.4607 1.56616 29.6176 1.56616 28.7386ZM25.6604 12.1666H28.4538C29.3105 12.1666 30.1321 12.5411 30.7378 13.2078C31.3436 13.8744 31.6839 14.7786 31.6839 15.7213V18.5634C31.6819 19.5047 31.3407 20.4068 30.7352 21.0716C30.1296 21.7364 29.3092 22.1098 28.4538 22.1098H25.6604V12.1666ZM18.8839 2.22345C19.3067 2.46207 19.667 2.81574 19.9306 3.25083C20.1941 3.68592 20.3522 4.18797 20.3898 4.70924C20.3898 6.36644 18.8839 6.16758 18.8839 8.02364M12.8603 2.22345C13.2831 2.46207 13.6434 2.81574 13.907 3.25083C14.1706 3.68592 14.3287 4.18797 14.3662 4.70924C14.3662 6.36644 12.8603 6.16758 12.8603 8.02364" fill="#BDA284"/>
<path d="M18.8839 2.22345C19.3067 2.46207 19.667 2.81574 19.9306 3.25083C20.1941 3.68592 20.3522 4.18797 20.3898 4.70925C20.3898 6.36644 18.8839 6.16758 18.8839 8.02364M12.8603 2.22345C13.2831 2.46207 13.6434 2.81574 13.907 3.25083C14.1706 3.68592 14.3287 4.18797 14.3662 4.70925C14.3662 6.36644 12.8603 6.16758 12.8603 8.02364M1.56616 28.7386H30.178C30.178 29.6176 29.8607 30.4607 29.2959 31.0822C28.7311 31.7038 27.5434 33.1136 26.7446 33.1136H15.9022C15.9022 33.1136 5.13577 33.1136 4.337 33.1136C3.53822 33.1136 3.01311 31.7038 2.44829 31.0822C1.88347 30.4607 1.56616 29.6176 1.56616 28.7386ZM25.6604 12.1666H28.4538C29.3105 12.1666 30.1321 12.5411 30.7378 13.2078C31.3436 13.8744 31.6839 14.7786 31.6839 15.7213V18.5634C31.6819 19.5047 31.3407 20.4068 30.7352 21.0716C30.1296 21.7364 29.3092 22.1098 28.4538 22.1098H25.6604V12.1666Z" stroke="#664631" stroke-width="2" stroke-linecap="round" stroke-linejoin="round"/>
</g>
<path id="Vector_3" d="M-316.176 -291.1H195.826V272.347H-316.176V-291.1Z" stroke="#252525" stroke-width="2" stroke-linecap="round" stroke-linejoin="round"/>
</g>
<defs>
<clipPath id="clip0_669_2023">
<rect width="35" height="35" fill="white" transform="translate(0 0.5)"/>
</clipPath>
</defs>
</svg>
