<svg width="40" height="40" viewBox="0 0 40 40" fill="none" xmlns="http://www.w3.org/2000/svg">
<g id="ice-cream">
<g id="Group">
<path id="Vector" d="M16.5844 6.16959L16.5855 6.16827C17.0448 5.61414 17.1492 4.91814 17.1077 4.27167C17.0854 3.92274 17.0197 3.57 16.9318 3.2314C18.0615 3.52833 19.0957 4.10083 19.9309 4.89694C20.1197 5.08332 20.296 5.28045 20.4587 5.48709C19.0985 5.44674 17.7459 5.78713 16.5702 6.47968C15.2649 7.24853 14.2574 8.40468 13.6961 9.76995C12.6759 9.22796 11.5247 8.96203 10.3649 8.99686C10.693 8.43573 11.1506 7.94771 11.7087 7.57293C12.5132 7.06856 13.3298 7.03178 14.1723 6.9984C14.1957 6.99747 14.2194 6.99655 14.2432 6.99563C15.0129 6.96585 15.9499 6.92959 16.5844 6.16959Z" fill="#BDA284" stroke="#664631"/>
<path id="Vector_2" d="M9.23552 14.572H5.67121C5.93128 13.0051 7.04703 11.771 8.48836 11.1334C10.0024 10.4636 11.8092 10.4831 13.244 11.4328C13.0701 12.8518 13.3608 14.2899 14.0783 15.5442C14.7934 16.7944 15.8929 17.7932 17.2177 18.4084V19.1441C17.2136 19.3621 17.1209 19.5742 16.9527 19.7336C16.783 19.8944 16.5503 19.9878 16.304 19.9878C16.0577 19.9878 15.825 19.8945 15.6553 19.7337C15.4871 19.5743 15.3944 19.3621 15.3903 19.1441L15.3903 19.1405L15.3903 19.1188L15.3903 19.0413L15.3899 18.8041C15.3898 18.7173 15.3895 18.629 15.3891 18.5604C15.3889 18.5263 15.3886 18.4961 15.3883 18.4731C15.3883 18.4728 15.3883 18.4721 15.3883 18.4713C15.3883 18.4647 15.3881 18.4445 15.3871 18.4228C15.3699 17.9319 15.1536 17.4712 14.7914 17.1377C14.4293 16.8044 13.9499 16.6236 13.4563 16.6284C12.9628 16.6332 12.487 16.8233 12.1318 17.1638C11.776 17.5049 11.5694 17.9706 11.563 18.4623L11.5629 18.4623V18.4689V20.5027C11.5588 20.7208 11.4662 20.9329 11.298 21.0923L11.6419 21.4553L11.298 21.0923C11.1283 21.2531 10.8956 21.3465 10.6493 21.3465C10.4029 21.3465 10.1702 21.2532 10.0005 21.0924C9.83232 20.933 9.73964 20.7209 9.73555 20.5028L9.73552 15.072L9.73552 14.572H9.23552Z" fill="#BDA284" stroke="#664631"/>
<path id="Vector_3" d="M29.9452 17.926C29.9448 17.9402 29.9444 17.9545 29.944 17.9689H29.9317L29.906 18.4417C29.7464 21.3777 28.5043 24.1667 26.397 26.3081C24.2893 28.4499 21.4537 29.8036 18.3968 30.1219L17.9239 30.1712L17.9493 30.6459C18.0655 32.8244 18.5472 34.9701 19.3753 37.0001L19.5022 37.3113H19.8383H22.6656C22.9142 37.3113 23.1488 37.4063 23.3188 37.5697C23.4881 37.7324 23.5793 37.9488 23.5793 38.1699C23.5793 38.3911 23.4881 38.6075 23.3188 38.7702C23.1488 38.9335 22.9142 39.0286 22.6656 39.0286H11.3561C11.1075 39.0286 10.8729 38.9335 10.703 38.7702C10.5337 38.6075 10.4424 38.3911 10.4424 38.1699C10.4424 37.9488 10.5337 37.7324 10.703 37.5697C10.8729 37.4063 11.1075 37.3113 11.3561 37.3113H14.1835H14.5195L14.6464 37.0001C15.4746 34.9701 15.9562 32.8244 16.0725 30.6459L16.0978 30.1712L15.625 30.1219C12.568 29.8036 9.7324 28.4499 7.62473 26.3081C5.51749 24.1667 4.27538 21.3777 4.11575 18.4417L4.09004 17.9689H4.08081V17.1102C4.08081 16.889 4.17205 16.6726 4.34134 16.5099C4.51131 16.3466 4.74592 16.2515 4.9945 16.2515H8.02873V20.5067H8.02869L8.02876 20.5126C8.03665 21.1872 8.32115 21.8274 8.81372 22.2955C9.30562 22.763 9.96549 23.022 10.6492 23.022C11.333 23.022 11.9928 22.763 12.4848 22.2956C12.9773 21.8275 13.2619 21.1873 13.2698 20.5126L13.2698 20.5126V20.5068V18.4756C13.2715 18.436 13.2888 18.3945 13.3246 18.3607C13.362 18.3255 13.4163 18.3025 13.4766 18.3025C13.537 18.3025 13.5913 18.3255 13.6287 18.3607C13.6645 18.3945 13.6818 18.436 13.6835 18.4756V19.148H13.6835L13.6835 19.1537C13.6912 19.8285 13.9756 20.4689 14.4682 20.9372C14.9601 21.4048 15.6201 21.6639 16.304 21.6639C16.9879 21.6639 17.6478 21.4049 18.1398 20.9372C18.6057 20.4943 18.8854 19.8974 18.9209 19.263C22.5279 21.4223 27.6478 20.4563 29.8778 16.8407C29.9033 16.9283 29.9219 17.0295 29.9343 17.1463C29.9554 17.3458 29.9546 17.5627 29.9488 17.7957C29.9477 17.8381 29.9465 17.8816 29.9452 17.926Z" fill="#BDA284" stroke="#664631"/>
<path id="Vector_4" d="M35.854 1.349L35.8541 1.34909L35.8619 1.34121C36.0601 1.14209 36.3281 1.01337 36.6204 0.982191C36.91 0.951284 37.2003 1.01876 37.4405 1.1701C37.5765 1.2642 37.6884 1.38422 37.7697 1.52106C37.8521 1.65989 37.9014 1.81316 37.9152 1.97021C37.929 2.12725 37.907 2.28562 37.8504 2.43462C37.7937 2.58369 37.7032 2.7207 37.5839 2.83541L29.2781 10.8181L29.0643 11.0236L29.142 11.3096C29.4401 12.4075 29.4032 13.5643 29.0354 14.6429C28.6675 15.7217 27.9833 16.6789 27.0615 17.3985C26.1395 18.1181 25.0193 18.5691 23.8343 18.695C23.4098 18.7401 22.9837 18.7428 22.5627 18.7042C23.9927 18.2115 25.2035 17.2487 26.0402 16.0539C27.2515 14.3241 27.7083 12.0626 26.8786 9.97518L35.854 1.349Z" fill="#BDA284" stroke="#664631"/>
<path id="Vector_5" d="M16.4486 8.65932L16.4486 8.65932C17.4487 7.69812 18.8092 7.15479 20.2318 7.15479C21.6513 7.15478 23.0089 7.69569 24.0084 8.65292C25.2314 9.9215 25.6675 11.2789 25.5927 12.5211C25.5171 13.776 24.9171 14.9588 23.9891 15.8509C22.1402 17.6283 19.0581 18.1991 16.442 15.87C15.9502 15.3956 15.5609 14.8342 15.2953 14.218C15.0286 13.5991 14.8916 12.9365 14.8916 12.2678C14.8916 11.5992 15.0286 10.9366 15.2953 10.3177C15.5621 9.69877 15.9536 9.13506 16.4486 8.65932ZM16.107 8.30386L16.1024 8.29902L16.107 8.30386Z" fill="#BDA284" stroke="#664631"/>
</g>
</g>
</svg>
