<svg width="35" height="36" viewBox="0 0 35 36" fill="none" xmlns="http://www.w3.org/2000/svg">
<g id="Frame 6">
<g id="Ice Drink">
<g id="Group 19">
<path id="Vector" d="M26.2113 5.3757C26.2113 5.3757 25.2969 3.78387 21.8158 3.67773C18.3348 3.57159 18.1377 2.66954 18.7945 1.50214C18.7945 1.50214 10.3535 2.35112 10.3535 5.3757H26.2113Z" fill="#BDA284"/>
<path id="Vector_2" d="M19.517 4.04908C16.036 3.94294 15.839 3.04089 16.4957 1.87349C16.4957 1.87349 16.4229 1.88093 16.2915 1.89651C17.6949 1.61333 18.7945 1.50214 18.7945 1.50214C18.1376 2.66954 18.3346 3.57159 21.8158 3.67773C25.297 3.78387 26.2113 5.3757 26.2113 5.3757H23.5954C23.0921 4.89835 21.9119 4.12209 19.517 4.04908Z" fill="#BDA284"/>
<path id="Vector_3" d="M26.2115 5.37604H10.3538V13.0225H26.2115V5.37604Z" fill="#BDA284"/>
<path id="Vector_4" d="M26.2117 23.8694C26.2117 26.8984 23.1719 29.3543 19.4231 29.3543H17.1433C13.3939 29.3543 10.3541 26.8984 10.3541 23.8694V21.5176H26.2119L26.2117 23.8694Z" fill="#BDA284"/>
<path id="Vector_5" d="M24.3561 23.8694V21.5176H26.2115V23.8694C26.2115 26.8984 23.1718 29.3543 19.4229 29.3543H17.5675C21.3163 29.3544 24.3561 26.8986 24.3561 23.8694Z" fill="#BDA284"/>
<path id="Vector_6" d="M26.2115 13.0223H10.3538V21.5174H26.2115V13.0223Z" fill="#BDA284"/>
<path id="Vector_7" d="M13.1761 24.962C13.1747 24.9942 13.1813 25.0263 13.1956 25.0564C13.2099 25.0864 13.2316 25.1139 13.2593 25.1371C13.287 25.1602 13.3201 25.1787 13.3568 25.1913C13.3935 25.2039 13.433 25.2104 13.4729 25.2104C13.5128 25.2104 13.5523 25.204 13.589 25.1914C13.6257 25.1788 13.6589 25.1604 13.6866 25.1373C13.7144 25.1141 13.736 25.0867 13.7504 25.0566C13.7647 25.0266 13.7714 24.9945 13.7701 24.9623C13.7675 24.9 13.7351 24.8411 13.6797 24.7978C13.6243 24.7545 13.5503 24.7303 13.4732 24.7303C13.3962 24.7302 13.3221 24.7544 13.2667 24.7976C13.2112 24.8408 13.1788 24.8998 13.1761 24.962ZM13.605 26.3888C13.605 26.4876 13.6535 26.5824 13.74 26.6522C13.8265 26.7221 13.9437 26.7613 14.066 26.7613C14.1883 26.7613 14.3056 26.7221 14.392 26.6522C14.4785 26.5824 14.5271 26.4876 14.5271 26.3888C14.5271 26.2901 14.4785 26.1954 14.3921 26.1256C14.3056 26.0557 14.1884 26.0165 14.0662 26.0165C14.0056 26.0165 13.9457 26.0261 13.8897 26.0448C13.8338 26.0635 13.7829 26.0909 13.7401 26.1255C13.6972 26.16 13.6633 26.2011 13.6401 26.2463C13.6169 26.2915 13.605 26.3399 13.605 26.3888ZM14.6984 25.2624C14.6983 25.302 14.7079 25.3412 14.7266 25.3777C14.7453 25.4143 14.7727 25.4475 14.8073 25.4754C14.842 25.5034 14.8831 25.5256 14.9283 25.5407C14.9736 25.5558 15.022 25.5635 15.071 25.5634C15.1199 25.5635 15.1683 25.5557 15.2135 25.5406C15.2587 25.5254 15.2998 25.5033 15.3343 25.4753C15.3689 25.4473 15.3963 25.4141 15.4149 25.3776C15.4336 25.3411 15.4432 25.3019 15.4431 25.2624C15.4431 25.0962 15.2768 24.9618 15.071 24.9618C15.0221 24.9618 14.9736 24.9695 14.9284 24.9846C14.8832 24.9996 14.8421 25.0218 14.8075 25.0497C14.7729 25.0776 14.7455 25.1108 14.7267 25.1473C14.708 25.1838 14.6984 25.2229 14.6984 25.2624ZM21.8325 8.36351C21.8325 8.42712 21.8638 8.48814 21.9194 8.53314C21.9751 8.57814 22.0506 8.60343 22.1293 8.60345C22.2081 8.60347 22.2836 8.57821 22.3393 8.53324C22.395 8.48827 22.4263 8.42726 22.4263 8.36365C22.4264 8.30003 22.3951 8.23901 22.3394 8.19401C22.2838 8.14902 22.2083 8.12373 22.1295 8.12371C22.0508 8.12369 21.9752 8.14894 21.9195 8.19391C21.8638 8.23889 21.8325 8.29989 21.8325 8.36351ZM21.832 7.25816C21.8306 7.29036 21.8373 7.32245 21.8515 7.35253C21.8658 7.38261 21.8875 7.41006 21.9152 7.43324C21.9429 7.45642 21.9761 7.47486 22.0128 7.48746C22.0495 7.50006 22.0889 7.50657 22.1288 7.50659C22.1687 7.50661 22.2082 7.50014 22.2449 7.48757C22.2816 7.47501 22.3148 7.4566 22.3426 7.43344C22.3703 7.41029 22.392 7.38286 22.4063 7.35279C22.4206 7.32273 22.4273 7.29064 22.426 7.25844C22.4234 7.19622 22.391 7.13725 22.3356 7.09397C22.2802 7.05068 22.2062 7.02646 22.1292 7.02643C22.0521 7.02639 21.978 7.05054 21.9226 7.09377C21.8672 7.137 21.8347 7.19594 21.832 7.25816ZM23.354 7.82312C23.3539 7.86268 23.3634 7.90187 23.3821 7.93844C23.4008 7.97501 23.4282 8.00824 23.4628 8.03622C23.4975 8.0642 23.5386 8.08638 23.5838 8.10149C23.6291 8.1166 23.6776 8.12434 23.7266 8.12427C23.7755 8.12429 23.8239 8.11651 23.8691 8.10137C23.9143 8.08624 23.9554 8.06405 23.99 8.03607C24.0245 8.0081 24.0519 7.97489 24.0706 7.93834C24.0892 7.9018 24.0987 7.86264 24.0986 7.82312C24.0986 7.65689 23.9323 7.52253 23.7266 7.52253C23.6777 7.52245 23.6292 7.53017 23.584 7.54525C23.5388 7.56032 23.4977 7.58246 23.4631 7.61038C23.4285 7.6383 23.401 7.67146 23.3823 7.70797C23.3636 7.74447 23.354 7.7836 23.354 7.82312Z" fill="#F4F4F4"/>
<path id="Vector_8" d="M26.2115 5.37604H24.3561V13.0225H26.2115V5.37604Z" fill="#BDA284"/>
<path id="Vector_9" d="M26.2115 13.0223H24.3561V21.5174H26.2115V13.0223Z" fill="#BDA284"/>
</g>
<g id="Group">
<path id="Vector_10" d="M17.1046 29.6959H19.3929C23.5861 29.6959 26.9976 26.9432 26.9976 23.5594V19.047C26.9932 18.8801 26.908 18.7211 26.7601 18.6043C26.6122 18.4875 26.4135 18.422 26.2066 18.422C25.9996 18.422 25.8009 18.4875 25.653 18.6043C25.5052 18.7211 25.4199 18.8801 25.4156 19.047V23.5595C25.4156 26.2394 22.7138 28.4194 19.393 28.4194H17.1048C13.7835 28.4194 11.0817 26.2394 11.0817 23.5595V5.65989H25.4156V16.1023C25.4199 16.2692 25.5052 16.4282 25.653 16.545C25.8009 16.6618 25.9996 16.7272 26.2066 16.7272C26.4135 16.7272 26.6122 16.6618 26.7601 16.545C26.908 16.4282 26.9932 16.2692 26.9976 16.1023V5.02166C26.9976 4.85239 26.9142 4.69005 26.7659 4.57036C26.6175 4.45066 26.4163 4.38342 26.2066 4.38342H10.2906C10.0808 4.38342 9.8796 4.45066 9.73126 4.57036C9.58293 4.69005 9.49959 4.85239 9.49959 5.02166V23.5594C9.49941 26.9432 12.9109 29.6959 17.1046 29.6959ZM12.1534 35.4999H14.6254C14.8323 35.4964 15.0293 35.4276 15.1741 35.3083C15.3189 35.189 15.4 35.0287 15.4 34.8617C15.4 34.6947 15.3189 34.5344 15.1741 34.415C15.0293 34.2957 14.8323 34.227 14.6254 34.2234H13.5006C13.9543 33.8764 14.7629 33.5652 16.242 33.5652H20.2555C21.7346 33.5652 22.5432 33.8765 22.9969 34.2234H18.2748C18.0679 34.227 17.8709 34.2957 17.7262 34.415C17.5814 34.5344 17.5003 34.6947 17.5003 34.8617C17.5003 35.0287 17.5814 35.189 17.7262 35.3083C17.8709 35.4276 18.0679 35.4964 18.2748 35.4999H24.3443C24.4671 35.5 24.5883 35.4769 24.6982 35.4326C24.8081 35.3882 24.9037 35.3238 24.9774 35.2445C25.051 35.1652 25.1008 35.0731 25.1226 34.9755C25.1445 34.878 25.1379 34.7777 25.1034 34.6825C24.5435 33.1388 22.8218 32.2885 20.2555 32.2885H16.242C13.6755 32.2885 11.954 33.1387 11.3941 34.6825C11.3597 34.7777 11.3531 34.878 11.375 34.9755C11.3969 35.0731 11.4467 35.1651 11.5204 35.2444C11.5941 35.3238 11.6896 35.3882 11.7995 35.4325C11.9094 35.4768 12.0305 35.4999 12.1534 35.4999Z" fill="#664631"/>
<path id="Vector_11" d="M19.258 29.0576H17.2391V32.9269H19.258V29.0576ZM10.2906 13.3249H26.2066C26.4163 13.3248 26.6175 13.2576 26.7658 13.1379C26.9142 13.0182 26.9975 12.8559 26.9976 12.6866V5.02166C26.9976 4.85239 26.9142 4.69005 26.7659 4.57036C26.6175 4.45066 26.4163 4.38342 26.2066 4.38342H10.2906C10.0808 4.38342 9.87961 4.45066 9.73127 4.57036C9.58293 4.69005 9.49959 4.85239 9.49959 5.02166V12.6865C9.49959 12.8558 9.58292 13.0181 9.73126 13.1378C9.87959 13.2576 10.0808 13.3248 10.2906 13.3249ZM25.4154 12.0483H11.0816V5.65989H25.4154V12.0483Z" fill="#664631"/>
<path id="Vector_12" d="M17.1046 29.6959H19.3929C23.5861 29.6959 26.9976 26.9433 26.9976 23.5595V21.202C26.9975 21.0328 26.9142 20.8704 26.7658 20.7508C26.6175 20.6311 26.4163 20.5638 26.2066 20.5638H10.2906C10.0808 20.5638 9.87965 20.6311 9.73132 20.7508C9.58299 20.8704 9.49963 21.0328 9.49959 21.202V23.5595C9.49941 26.9433 12.9109 29.6959 17.1046 29.6959ZM25.4154 21.8404V23.5595C25.4154 26.2393 22.7136 28.4193 19.3929 28.4193H17.1046C13.7833 28.4193 11.0816 26.2393 11.0816 23.5595V21.8404H25.4154Z" fill="#664631"/>
<path id="Vector_13" d="M10.2909 21.8403H26.2069C26.4167 21.8403 26.6178 21.773 26.7662 21.6533C26.9145 21.5337 26.9978 21.3713 26.9979 21.2021V19.047C26.9935 18.8801 26.9083 18.7211 26.7604 18.6043C26.6126 18.4875 26.4138 18.422 26.2069 18.422C25.9999 18.422 25.8012 18.4875 25.6534 18.6043C25.5055 18.7211 25.4202 18.8801 25.4159 19.047V20.5637H11.0821V13.3249H25.4159V16.1024C25.4202 16.2694 25.5055 16.4283 25.6534 16.5451C25.8012 16.6619 25.9999 16.7274 26.2069 16.7274C26.4138 16.7274 26.6126 16.6619 26.7604 16.5451C26.9083 16.4283 26.9935 16.2694 26.9979 16.1024V12.6866C26.9978 12.5174 26.9145 12.3551 26.7662 12.2354C26.6178 12.1157 26.4167 12.0484 26.2069 12.0484H10.2909C10.0811 12.0484 9.87997 12.1157 9.73164 12.2354C9.58331 12.3551 9.49995 12.5174 9.49991 12.6866V21.2021C9.49995 21.3713 9.58331 21.5337 9.73164 21.6533C9.87997 21.773 10.0811 21.8403 10.2909 21.8403ZM10.2909 5.65987H26.2069C26.3398 5.66 26.4707 5.63308 26.5873 5.58158C26.7039 5.53009 26.8025 5.45569 26.874 5.36528C26.9456 5.27486 26.9877 5.17135 26.9964 5.06432C27.0052 4.95729 26.9804 4.85021 26.9243 4.75297C26.8784 4.67346 25.7578 2.80126 21.8251 2.68163C19.7851 2.61943 19.3752 2.28617 19.2985 2.18568C19.2032 2.06127 19.2686 1.78318 19.4828 1.40278C19.5411 1.29947 19.5641 1.18549 19.5495 1.07261C19.535 0.959724 19.4833 0.852019 19.4 0.760602C19.3174 0.668535 19.2055 0.596212 19.0761 0.551293C18.9467 0.506375 18.8046 0.490534 18.665 0.505449C17.7271 0.599601 9.49973 1.5269 9.49973 5.02163C9.49978 5.19092 9.58316 5.35325 9.73153 5.47294C9.87989 5.59263 10.0811 5.65987 10.2909 5.65987ZM24.1534 4.3834H11.2847C12.1411 3.06978 15.5157 2.27055 17.6786 1.92898C17.658 2.22917 17.7203 2.55357 17.9521 2.85643C18.4857 3.55377 19.662 3.89336 21.7653 3.9574C22.817 3.98948 23.5916 4.16709 24.1534 4.3834ZM13.123 24.6549C13.1216 24.6871 13.1282 24.7193 13.1426 24.7495C13.1569 24.7796 13.1786 24.8071 13.2064 24.8304C13.2342 24.8536 13.2675 24.8721 13.3044 24.8847C13.3412 24.8974 13.3808 24.9039 13.4209 24.9039C13.4609 24.9039 13.5005 24.8974 13.5374 24.8848C13.5742 24.8722 13.6076 24.8538 13.6354 24.8306C13.6632 24.8074 13.685 24.7799 13.6994 24.7497C13.7137 24.7196 13.7205 24.6874 13.7191 24.6552C13.7165 24.5928 13.684 24.5337 13.6284 24.4903C13.5728 24.4469 13.4985 24.4226 13.4212 24.4226C13.3439 24.4225 13.2695 24.4467 13.2139 24.4901C13.1583 24.5334 13.1256 24.5925 13.123 24.6549ZM13.5534 26.0852C13.5534 26.1842 13.6022 26.2792 13.689 26.3492C13.7757 26.4192 13.8934 26.4585 14.0162 26.4585C14.1389 26.4585 14.2566 26.4192 14.3434 26.3492C14.4301 26.2792 14.4789 26.1842 14.4789 26.0852C14.4789 25.9862 14.4302 25.8912 14.3434 25.8212C14.2567 25.7513 14.139 25.7119 14.0163 25.7119C13.9556 25.7119 13.8954 25.7215 13.8392 25.7403C13.7831 25.759 13.732 25.7865 13.689 25.8211C13.646 25.8558 13.6119 25.897 13.5887 25.9423C13.5654 25.9876 13.5534 26.0361 13.5534 26.0852ZM14.6509 24.956C14.6508 24.9957 14.6604 25.035 14.6792 25.0716C14.6979 25.1082 14.7255 25.1415 14.7602 25.1696C14.7949 25.1976 14.8362 25.2198 14.8816 25.235C14.927 25.2501 14.9757 25.2579 15.0248 25.2578C15.0739 25.2578 15.1225 25.25 15.1679 25.2348C15.2132 25.2197 15.2544 25.1974 15.2891 25.1694C15.3238 25.1414 15.3513 25.1081 15.37 25.0715C15.3888 25.0349 15.3984 24.9957 15.3983 24.956C15.3983 24.7894 15.2313 24.6547 15.0248 24.6547C14.9757 24.6547 14.9271 24.6624 14.8817 24.6775C14.8364 24.6926 14.7951 24.7148 14.7604 24.7428C14.7256 24.7708 14.6981 24.804 14.6793 24.8406C14.6605 24.8772 14.6509 24.9164 14.6509 24.956ZM21.8112 8.01647C21.8111 8.08024 21.8425 8.14141 21.8984 8.18652C21.9542 8.23162 22.03 8.25697 22.1091 8.25699C22.1881 8.25701 22.2639 8.23169 22.3198 8.18662C22.3757 8.14154 22.4071 8.08039 22.4072 8.01662C22.4072 7.95285 22.3758 7.89168 22.3199 7.84657C22.2641 7.80147 22.1883 7.77612 22.1092 7.7761C22.0302 7.77608 21.9544 7.8014 21.8985 7.84648C21.8426 7.89155 21.8112 7.9527 21.8112 8.01647ZM21.8106 6.90847C21.8092 6.94075 21.8159 6.97292 21.8303 7.00307C21.8446 7.03322 21.8663 7.06073 21.8941 7.08397C21.9219 7.10721 21.9552 7.12569 21.9921 7.13832C22.0289 7.15096 22.0685 7.15748 22.1085 7.15749C22.1486 7.15751 22.1882 7.15103 22.225 7.13843C22.2619 7.12584 22.2952 7.10738 22.3231 7.08417C22.3509 7.06096 22.3727 7.03347 22.387 7.00333C22.4014 6.97319 22.4081 6.94103 22.4068 6.90875C22.4042 6.84638 22.3717 6.78727 22.3161 6.74388C22.2605 6.70049 22.1862 6.67622 22.1089 6.67618C22.0316 6.67614 21.9572 6.70035 21.9016 6.74368C21.8459 6.78702 21.8133 6.84611 21.8106 6.90847ZM23.3382 7.47479C23.3381 7.51444 23.3477 7.55373 23.3664 7.59039C23.3852 7.62704 23.4127 7.66035 23.4475 7.6884C23.4822 7.71645 23.5235 7.73869 23.5689 7.75383C23.6143 7.76898 23.663 7.77674 23.7122 7.77666C23.7613 7.77668 23.8099 7.76888 23.8553 7.75371C23.9006 7.73854 23.9418 7.7163 23.9765 7.68825C24.0112 7.66021 24.0387 7.62692 24.0574 7.59029C24.0761 7.55366 24.0857 7.51441 24.0856 7.47479C24.0856 7.30816 23.9187 7.17347 23.7122 7.17347C23.6631 7.1734 23.6144 7.18114 23.5691 7.19625C23.5237 7.21136 23.4825 7.23355 23.4477 7.26153C23.413 7.28952 23.3854 7.32277 23.3666 7.35936C23.3478 7.39595 23.3382 7.43518 23.3382 7.47479Z" fill="#664631"/>
</g>
</g>
</g>
</svg>
