<svg width="82" height="22" viewBox="0 0 82 22" fill="none" xmlns="http://www.w3.org/2000/svg">
<rect width="82" height="22" fill="#1E1E1E"/>
<g id="Main Phone">
<rect width="320" height="7611" transform="translate(-171 -167)" fill="#163730"/>
<g id="Header">
<rect width="320" height="568" transform="translate(-171 -167)" fill="#163730"/>
<g id="Group 34">
<path id="Vector 4" d="M1 1C27.241 2.1457 53.656 4.59539 79.8881 1.93827C85.4149 1.37846 68.8257 2.70172 63.2993 3.27161C53.0584 4.32764 42.8161 5.5066 32.6047 7.34568C29.2966 7.94145 24.9912 8.19562 21.6711 10.1358C21.445 10.2679 22.0597 10.7335 22.2951 10.7778C25.2124 11.3263 28.1987 11.2971 31.1226 11.4691C39.1655 11.9425 47.242 11.8865 55.2779 12.5802C57.8079 12.7987 50.2806 14.2167 47.8285 15.4198C45.962 16.3354 42.4492 17.2972 41.7181 21" stroke="#4D8B55" stroke-width="2" stroke-linecap="round"/>
<g id="&#216;&#173;&#216;&#167;&#217;&#132; &#216;&#174;&#217;&#136;&#216;&#168;&#216;&#170; &#216;&#168;&#216;&#167; &#217;&#133;&#216;&#167;">
<path d="M-138.341 33C-141.011 33 -142.071 31.91 -142.221 28.27C-142.461 22.09 -142.701 20.88 -143.191 18.94C-142.341 18.09 -141.371 16.76 -140.761 15.79H-140.641C-140.641 16.88 -140.521 17.85 -140.521 20.03C-140.521 21.97 -140.641 24.39 -140.641 26.7C-140.641 28.39 -139.791 29.24 -137.731 29.24L-138.341 33ZM-130.267 23.79C-128.327 23.79 -127.237 25.97 -127.237 28.52C-127.237 31.3 -128.327 33 -129.417 33C-131.967 33 -134.267 31.79 -134.267 29.97C-134.267 29.36 -134.147 28.64 -134.027 28.15H-134.147C-134.637 29.36 -134.657 33 -137.547 33C-137.907 33 -138.147 32.64 -138.147 31.79C-138.147 30.09 -137.667 29.24 -136.937 29.24C-135.607 29.24 -134.877 29 -134.147 27.06L-133.667 27.42C-132.327 24.64 -131.487 23.79 -130.267 23.79ZM-130.997 26.45C-132.067 26.45 -132.837 26.82 -133.297 27.55C-132.477 28.64 -130.147 29.24 -128.937 29.24C-128.087 29.24 -127.727 29.12 -127.727 28.88C-127.727 28.03 -129.057 26.45 -130.997 26.45ZM-115.336 33C-118.006 33 -119.066 31.91 -119.216 28.27C-119.456 22.09 -119.696 20.88 -120.186 18.94C-119.336 18.09 -118.366 16.76 -117.756 15.79H-117.636C-117.636 16.88 -117.516 17.85 -117.516 20.03C-117.516 21.97 -117.636 24.39 -117.636 26.7C-117.636 28.39 -116.786 29.24 -114.726 29.24L-115.336 33ZM-109.082 27.91C-109.082 31.3 -110.412 33 -114.542 33C-114.952 33 -115.142 32.59 -115.142 31.79C-115.142 30.07 -114.682 29.24 -113.932 29.24C-111.752 29.24 -109.492 28.83 -109.492 28.39C-109.492 28.03 -110.902 26.67 -112.112 25.85C-111.602 25.29 -110.902 23.64 -110.542 22.7H-110.412C-110.152 23.4 -109.082 25.27 -109.082 27.91ZM-112.842 38.22C-113.232 37.75 -114.152 36.91 -114.782 36.64V36.52L-113.202 34.58C-112.452 34.94 -111.512 35.79 -111.142 36.4L-112.842 38.22ZM-18.3649 23.42C-18.3649 29.82 -18.9549 32.56 -20.1849 34.58C-21.3049 36.39 -22.9549 37.36 -25.7649 37.36C-28.9349 37.36 -30.7349 35.45 -30.7349 32.03C-30.7349 30.33 -30.3649 28.52 -29.5249 26.7H-29.2749C-29.7649 28.03 -29.8849 29.12 -29.8849 29.97C-29.8849 32.3 -28.1849 33.61 -25.3949 33.61C-22.4649 33.61 -19.6749 32.44 -19.6749 30.82C-19.7749 26.94 -20.5949 19.23 -20.9149 17.73C-20.0649 16.88 -19.0949 15.55 -18.4949 14.58H-18.3649C-18.3649 15.67 -18.3649 19.91 -18.3649 23.42ZM-10.2259 33C-12.8959 33 -13.9559 31.91 -14.1059 28.27C-14.3459 22.09 -14.5859 20.88 -15.0759 18.94C-14.2259 18.09 -13.2559 16.76 -12.6459 15.79H-12.5259C-12.5259 16.88 -12.4059 17.85 -12.4059 20.03C-12.4059 21.97 -12.5259 24.39 -12.5259 26.7C-12.5259 28.39 -11.6759 29.24 -9.61586 29.24L-10.2259 33ZM-5.06149 23.18C-2.88149 23.18 0.628513 25.48 4.19851 25.61V25.73C3.78851 26.09 2.93851 27.3 2.56851 28.03C-1.30149 28.15 -2.03149 33 -9.43149 33C-9.84149 33 -10.0315 32.59 -10.0315 31.79C-10.0315 30.07 -9.57149 29.24 -8.82149 29.24C-1.91149 29.24 -0.701487 28.39 1.11851 27.79V27.67C-2.15149 27.06 -4.09149 25.97 -5.67149 25.97C-6.64149 25.97 -7.37149 26.33 -7.85149 27.18H-7.97149C-7.12149 23.79 -6.27149 23.18 -5.06149 23.18Z" fill="#FFFEFE"/>
<path d="M-79.2465 20.675C-79.5715 21.25 -80.1465 22.9375 -80.2965 23.55C-82.4215 23.7 -84.5465 23.7625 -85.459 23.7625C-86.8215 23.7625 -87.5715 23.4875 -87.5715 22.55C-87.5715 21.9375 -87.1215 21.0625 -86.9715 20.125H-86.8215C-86.8215 20.725 -86.209 20.8875 -84.8465 20.8875C-84.2465 20.8875 -81.059 20.825 -79.2465 20.675ZM-70.7465 33C-73.1715 33 -74.534 31.6375 -74.534 29.0625C-74.534 28.6 -74.484 27.9125 -74.384 27.2375H-74.534C-75.7465 31.4875 -79.084 33.15 -85.1465 33.15C-91.359 33.15 -93.784 31.1875 -93.784 27.4C-93.784 26.025 -93.634 24.3625 -92.7215 21.9375H-92.4215C-92.7215 23 -92.809 23.7625 -92.809 24.6625C-92.809 26.7875 -90.1465 28.45 -84.6965 28.45C-78.3215 28.45 -74.9965 27.4 -73.784 24.975H-73.5715C-73.5965 25.275 -73.634 25.725 -73.634 26.025C-73.634 27.2375 -72.7215 28.3 -69.9965 28.3L-70.7465 33ZM-65.191 26.6375C-65.191 30.875 -66.8535 33 -72.016 33C-72.5285 33 -72.766 32.4875 -72.766 31.4875C-72.766 29.3375 -72.191 28.3 -71.2535 28.3C-68.5285 28.3 -65.7035 27.7875 -65.7035 27.2375C-65.7035 26.7875 -67.466 25.0875 -68.9785 24.0625C-68.341 23.3625 -67.466 21.3 -67.016 20.125H-66.8535C-66.5285 21 -65.191 23.3375 -65.191 26.6375ZM-69.891 39.525C-70.3785 38.9375 -71.5285 37.8875 -72.316 37.55V37.4L-70.341 34.975C-69.4035 35.425 -68.2285 36.4875 -67.766 37.25L-69.891 39.525ZM-52.7551 28.3L-53.5051 33H-54.7926C-55.5301 37.6 -58.0051 39.8125 -60.7801 39.8125C-63.0551 39.8125 -65.0301 38.45 -66.5426 38V37.85C-62.8676 37.2125 -57.3051 34.9 -55.5676 32.575C-56.7926 32.875 -57.9926 33 -59.7176 33C-62.2926 33 -63.5051 31.5125 -63.5051 28.7625C-63.5051 25.2375 -61.8426 22.0875 -59.1176 22.0875C-56.5926 22.0875 -54.9926 24.4375 -54.6426 28.3H-52.7551ZM-62.9051 27.2375C-62.9051 27.85 -62.1426 28.6 -59.5676 28.6C-58.5801 28.6 -56.9676 28.6 -55.4926 28.4875C-56.2051 26.6 -57.6926 25.425 -59.7176 25.425C-61.5426 25.425 -62.9051 26.6375 -62.9051 27.2375ZM-47.19 17.0875C-47.64 16.4875 -48.8525 15.45 -49.615 15.125V14.9625L-47.64 12.5375C-46.7025 13 -45.5275 14.0625 -45.065 14.8125L-47.19 17.0875ZM-49.3025 20.725C-46.5775 20.725 -42.19 23.6 -37.7275 23.7625V23.9125C-38.24 24.3625 -39.3025 25.875 -39.765 26.7875C-44.6025 26.9375 -45.515 33 -54.765 33C-55.2775 33 -55.515 32.4875 -55.515 31.4875C-55.515 29.3375 -54.94 28.3 -54.0025 28.3C-45.365 28.3 -43.8525 27.2375 -41.5775 26.4875V26.3375C-45.665 25.575 -48.09 24.2125 -50.065 24.2125C-51.2775 24.2125 -52.19 24.6625 -52.79 25.725H-52.94C-51.8775 21.4875 -50.815 20.725 -49.3025 20.725Z" fill="#CC2A2F"/>
</g>
</g>
</g>
</g>
</svg>
