<svg width="35" height="36" viewBox="0 0 35 36" fill="none" xmlns="http://www.w3.org/2000/svg">
<g id="pizza-breakfast-svgrepo-com 1">
<path id="Vector" d="M14.9844 17.7812C15.6488 17.7812 16.1875 17.2426 16.1875 16.5781C16.1875 15.9137 15.6488 15.375 14.9844 15.375C14.3199 15.375 13.7812 15.9137 13.7812 16.5781C13.7812 17.2426 14.3199 17.7812 14.9844 17.7812Z" fill="#BDA284"/>
<path id="Vector_2" d="M23.8437 29.0469L23.5156 28.9375C15.0937 26.9688 8.53119 20.2969 6.56244 11.9844L6.45306 11.6562C6.45306 11.4375 6.34369 11.3281 6.34369 11.1094C6.23432 10.7812 6.01556 10.3438 5.79681 10.125C5.57806 10.0156 5.35931 9.79688 5.03119 9.79688C4.81244 9.79688 4.70306 10.0156 4.59369 10.125C4.37494 10.4531 4.26556 11 4.37494 11.5469C6.23431 21.5 13.9999 29.2656 23.9531 31.0156C24.7187 31.2344 25.2656 30.9062 25.4843 30.6875C25.7031 30.5781 25.7031 30.3594 25.7031 30.3594C25.7031 29.8125 25.0468 29.2656 24.2812 29.1562C24.1718 29.1562 24.0624 29.0469 23.8437 29.0469Z" fill="#BDA284"/>
<path id="Vector_3" d="M27.3438 10.4531C27.3438 10.8906 27.5625 11.2188 27.8906 11.4375L28.4375 9.79688L28.5469 9.25C27.8906 9.25 27.3438 9.79688 27.3438 10.4531Z" fill="#BDA284"/>
<path id="Vector_4" d="M24.7188 21.2812C23.7344 21.2812 22.9688 22.0469 22.9688 22.9219C22.9688 23.4688 23.2969 24.0156 23.7344 24.3437L24.7188 21.2812Z" fill="#BDA284"/>
<path id="Vector_5" d="M21.875 15.9219C21.875 16.3594 22.2031 16.6875 22.6406 16.6875C23.0781 16.6875 23.4062 16.3594 23.4062 15.9219C23.4062 15.4844 23.0781 15.1562 22.6406 15.1562C22.2031 15.1562 21.875 15.4844 21.875 15.9219Z" fill="#BDA284"/>
<path id="Vector_6" d="M20.8906 10.125C21.5469 10.125 22.0938 9.57812 22.0938 8.92187C22.0938 8.70312 21.9844 8.48438 21.875 8.26562L19.6875 8.92187C19.6875 9.57812 20.2344 10.125 20.8906 10.125Z" fill="#BDA284"/>
<path id="Vector_7" d="M24.1719 8.92187C24.1719 10.7812 22.6406 12.3125 20.7812 12.3125C19.25 12.3125 17.8281 11.2187 17.5 9.6875L8.75 12.2031C8.85938 12.2031 8.85938 12.3125 8.85938 12.4219C8.96875 12.6406 8.96875 12.75 9.07813 12.9687C9.07813 13.2969 9.1875 13.5156 9.29688 13.7344C9.29688 13.9531 9.40625 14.1719 9.51562 14.3906C9.51562 14.6094 9.625 14.8281 9.73437 15.0469C9.84375 15.2656 9.95312 15.4844 10.0625 15.7031C10.1719 15.9219 10.2812 16.0312 10.3906 16.25C10.5 16.4687 10.6094 16.6875 10.7188 16.9062C10.8281 17.125 10.9375 17.3438 11.0469 17.4531C11.1563 17.6719 11.375 17.8906 11.4844 18.1094C11.5938 18.2188 11.7031 18.4375 11.8125 18.5469C11.9219 18.7656 12.1406 18.9844 12.25 19.2031C12.3594 19.3125 12.4688 19.5312 12.5781 19.6406C12.7969 19.8594 12.9062 20.0781 13.125 20.2969C13.2344 20.4062 13.3438 20.5156 13.4531 20.625C13.7812 21.0625 14.2188 21.3906 14.5469 21.7187C14.6562 21.8281 14.7656 22.0469 14.9844 22.1562C15.0938 22.375 15.3125 22.4844 15.4219 22.5938C15.6406 22.7031 15.75 22.9219 15.9688 23.0312C16.1875 23.1406 16.2969 23.25 16.5156 23.3594C16.7344 23.4687 16.9531 23.6875 17.1719 23.7969C17.3906 23.9062 17.5 24.0156 17.7188 24.125C17.9375 24.3438 18.1562 24.4531 18.375 24.5625C18.5937 24.6719 18.7031 24.7812 18.9219 24.8906C19.25 25 19.4688 25.1094 19.6875 25.2188C19.9062 25.3281 20.0156 25.3281 20.2344 25.4375C20.4531 25.5469 20.7813 25.6562 21 25.7656C21.1094 25.875 21.3281 25.875 21.4375 25.9844C21.7656 26.0938 21.9844 26.2031 22.3125 26.3125C22.4219 26.3125 22.6406 26.4219 22.75 26.4219C22.8594 26.5313 22.9688 26.5312 23.0781 26.5312V26.4219C21.7656 25.875 20.7812 24.4531 20.7812 22.9219C20.7812 20.8438 22.5312 19.0938 24.6094 19.0938C24.9375 19.0938 25.1562 19.0938 25.375 19.0938L27.2344 13.5156C26.1406 12.9687 25.2656 11.875 25.2656 10.4531C25.2656 8.59375 26.7969 7.0625 28.6562 7.0625C28.875 7.0625 29.0938 7.0625 29.3125 7.17187L29.6406 5.75L23.8437 7.60937C24.0625 7.9375 24.1719 8.48437 24.1719 8.92187ZM14.9844 19.8594C13.125 19.8594 11.5938 18.3281 11.5938 16.4688C11.5938 14.6094 13.125 13.0781 14.9844 13.0781C16.8438 13.0781 18.375 14.6094 18.375 16.4688C18.375 18.3281 16.8438 19.8594 14.9844 19.8594ZM25.7031 15.9219C25.7031 17.5625 24.3906 18.875 22.75 18.875C21.1094 18.875 19.7969 17.5625 19.7969 15.9219C19.7969 14.2812 21.1094 12.9687 22.75 12.9687C24.3906 12.9687 25.7031 14.2812 25.7031 15.9219Z" fill="#BDA284"/>
<path id="Vector_8" d="M32.2656 3.23441C31.9375 2.90629 31.5 2.79691 31.1719 3.01566L8.42187 10.3438C8.3125 9.68754 7.98437 9.14066 7.4375 8.59379C6.78125 7.93754 5.90625 7.50004 4.92187 7.60941C4.15625 7.60941 3.39062 8.04691 2.84375 8.70316C2.1875 9.68754 1.96875 10.7813 2.1875 11.9844C4.26562 22.8125 12.6875 31.2344 23.5156 33.3125C23.7344 33.3125 24.0625 33.3125 24.3906 33.3125C25.375 33.3125 26.3594 32.9844 27.0156 32.2188C27.5625 31.6719 27.7812 31.125 27.8906 30.4688C28 28.9375 26.7969 27.5157 25.1562 26.9688L30.2969 11.2188L31.0625 8.92191L32.5937 4.32816C32.7031 3.89066 32.5937 3.45316 32.2656 3.23441ZM21.875 8.26566C21.9844 8.48441 22.0938 8.70316 22.0938 8.92191C22.0938 9.57816 21.5469 10.125 20.8906 10.125C20.2344 10.125 19.6875 9.57816 19.6875 8.92191L21.875 8.26566ZM25.7031 30.3594C25.7031 30.3594 25.7031 30.5782 25.4844 30.6875C25.2656 30.9063 24.7187 31.2344 23.9531 31.0157C14 29.2657 6.23437 21.5 4.375 11.5469C4.26562 11 4.375 10.4532 4.59375 10.125C4.70312 10.0157 4.8125 9.79691 5.03125 9.79691C5.35937 9.79691 5.57812 10.0157 5.79688 10.125C6.01562 10.3438 6.23438 10.7813 6.34375 11.1094C6.34375 11.3282 6.45312 11.4375 6.45312 11.6563L6.5625 11.9844C8.53125 20.2969 15.0937 26.9688 23.5156 28.9375L23.8437 29.0469C24.0625 29.0469 24.1719 29.1563 24.2812 29.1563C25.0469 29.2657 25.7031 29.8125 25.7031 30.3594ZM22.9687 22.9219C22.9687 22.0469 23.7344 21.2813 24.6094 21.2813H24.7188L23.7344 24.3438C23.2969 24.0157 22.9687 23.4688 22.9687 22.9219ZM28.4375 9.79691L27.8906 11.4375C27.5625 11.2188 27.3437 10.8907 27.3437 10.4532C27.3437 9.79691 27.8906 9.25004 28.5469 9.25004L28.4375 9.79691ZM29.3125 7.17191C29.0937 7.06254 28.875 7.06254 28.6562 7.06254C26.7969 7.06254 25.2656 8.59379 25.2656 10.4532C25.2656 11.875 26.1406 12.9688 27.2344 13.5157L25.375 19.0938C25.1562 19.0938 24.9375 19.0938 24.6094 19.0938C22.5312 19.0938 20.7812 20.8438 20.7812 22.9219C20.7812 24.4532 21.7656 25.875 23.0781 26.4219V26.5313C22.9688 26.5313 22.8594 26.5313 22.75 26.4219C22.6406 26.4219 22.4219 26.3125 22.3125 26.3125C21.9844 26.2032 21.7656 26.0938 21.4375 25.9844C21.3281 25.875 21.1094 25.875 21 25.7657C20.7812 25.6563 20.4531 25.5469 20.2344 25.4375C20.0156 25.3282 19.9062 25.3282 19.6875 25.2188C19.4687 25.1094 19.25 25 18.9219 24.8907C18.7031 24.7813 18.5937 24.6719 18.375 24.5625C18.1562 24.4532 17.9375 24.3438 17.7188 24.125C17.5 24.0157 17.3906 23.9063 17.1719 23.7969C16.9531 23.6875 16.7344 23.4688 16.5156 23.3594C16.2969 23.25 16.1875 23.1407 15.9687 23.0313C15.75 22.9219 15.6406 22.7032 15.4219 22.5938C15.3125 22.4844 15.0937 22.375 14.9844 22.1563C14.7656 22.0469 14.6562 21.8282 14.5469 21.7188C14.2187 21.3907 13.7812 21.0625 13.4531 20.625C13.3437 20.5157 13.2344 20.4063 13.125 20.2969C12.9062 20.0782 12.7969 19.8594 12.5781 19.6407C12.4687 19.5313 12.3594 19.3125 12.25 19.2032C12.1406 18.9844 11.9219 18.7657 11.8125 18.5469C11.7031 18.4375 11.5937 18.2188 11.4844 18.1094C11.375 17.8907 11.1562 17.6719 11.0469 17.4532C10.9375 17.3438 10.8281 17.125 10.7187 16.9063C10.6094 16.6875 10.5 16.4688 10.3906 16.25C10.2812 16.0313 10.1719 15.9219 10.0625 15.7032C9.95312 15.4844 9.84375 15.2657 9.73437 15.0469C9.625 14.8282 9.51562 14.6094 9.51562 14.3907C9.40625 14.1719 9.29687 13.9532 9.29687 13.7344C9.1875 13.5157 9.07812 13.2969 9.07812 12.9688C8.96875 12.75 8.96875 12.6407 8.85937 12.4219C8.85937 12.3125 8.85937 12.2032 8.75 12.2032L17.5 9.68754C17.8281 11.2188 19.25 12.3125 20.7812 12.3125C22.6406 12.3125 24.1719 10.7813 24.1719 8.92191C24.1719 8.48441 24.0625 7.93754 23.8437 7.60941L29.6406 5.75004L29.3125 7.17191Z" fill="#664631"/>
<path id="Vector_9" d="M14.9844 13.0781C13.125 13.0781 11.5938 14.6094 11.5938 16.4688C11.5938 18.3281 13.125 19.8594 14.9844 19.8594C16.8437 19.8594 18.375 18.3281 18.375 16.4688C18.375 14.6094 16.8437 13.0781 14.9844 13.0781ZM14.9844 17.7812C14.3281 17.7812 13.7812 17.2344 13.7812 16.5781C13.7812 15.9219 14.3281 15.375 14.9844 15.375C15.6406 15.375 16.1875 15.9219 16.1875 16.5781C16.1875 17.2344 15.6406 17.7812 14.9844 17.7812Z" fill="#664631"/>
<path id="Vector_10" d="M19.7969 15.9219C19.7969 17.5625 21.1094 18.875 22.75 18.875C24.3906 18.875 25.7031 17.5625 25.7031 15.9219C25.7031 14.2813 24.3906 12.9688 22.75 12.9688C21.1094 12.9688 19.7969 14.2813 19.7969 15.9219ZM23.4062 15.9219C23.4062 16.3594 23.0781 16.6875 22.6406 16.6875C22.2031 16.6875 21.875 16.3594 21.875 15.9219C21.875 15.4844 22.2031 15.1562 22.6406 15.1562C23.0781 15.1562 23.4062 15.4844 23.4062 15.9219Z" fill="#BDA284"/>
</g>
</svg>
